# xmcd
#
# Track frame offsets:
#	150
#	11610
#	22649
#	32788
#	45123
#	56205
#	66976
#	77873
#	88244
#	100105
#	110083
#	120077
#	133286
#	148732
#	163558
#	174530
#	190784
#	203862
#	214743
#	224330
#	234234
#	245380
#
# Disc length: 3417 seconds
#
# Revision: 1
# Processed by: cddbd v1.5.2PL0 Copyright (c) Steve Scherf et al.
# Submitted via: audiograbber 1.83.01
#
DISCID=300d5716
DTITLE=George Jones and Tammy Wynette - We Go Together (1971) and Let's Build A Wor
DTITLE=ld Together (1973)
DYEAR=2011
DGENRE=Country
TTITLE0=We Go Together
TTITLE1=It's So Sweet
TTITLE2=Something To Brag About
TTITLE3=Never Grow Cold
TTITLE4=You're Everything
TTITLE5=Take Me (Single Version)
TTITLE6=Someone I Used To Know
TTITLE7=Livin' On Easy Street
TTITLE8=A Lifetime Left Together
TTITLE9=When True Love Steps In
TTITLE10=After Closing Time
TTITLE11=Let's Build A World Together
TTITLE12=The World Needs A Melody
TTITLE13=When I Stop Dreaming
TTITLE14=After The Fire Is Gone
TTITLE15=My Elusive Dreams
TTITLE16=Your Shining Face
TTITLE17=Touching Shoulders
TTITLE18=Love Is All We Need
TTITLE19=Help The People
TTITLE20=Our Way Of Life
TTITLE21=This Growing Old Together Love We Share
EXTD=
EXTT0=
EXTT1=
EXTT2=
EXTT3=
EXTT4=
EXTT5=
EXTT6=
EXTT7=
EXTT8=
EXTT9=
EXTT10=
EXTT11=
EXTT12=
EXTT13=
EXTT14=
EXTT15=
EXTT16=
EXTT17=
EXTT18=
EXTT19=
EXTT20=
EXTT21=
PLAYORDER=
